<svg xmlns="http://www.w3.org/2000/svg" viewBox="0 0 1200 630" width="1200" height="630">
  <defs>
    <radialGradient id="halo" cx="50%" cy="20%" r="60%">
      <stop offset="0%" stop-color="#6E56F8" stop-opacity="0.22"/>
      <stop offset="100%" stop-color="#6E56F8" stop-opacity="0"/>
    </radialGradient>
  </defs>
  <rect width="1200" height="630" fill="#08080F"/>
  <rect width="1200" height="630" fill="url(#halo)"/>
  <g transform="translate(80 74)">
    <path d="M0 44v-13c0-3.3 2.7-6 6-6h14V11c0-3.3 2.7-6 6-6h14" stroke="#FFFFFF" stroke-width="13" stroke-linecap="square" fill="none"/>
    <rect x="43" y="0" width="18" height="18" rx="5.5" fill="#6E56F8"/>
    <text x="80" y="38" font-family="system-ui, sans-serif" font-size="34" font-weight="800" fill="#FFFFFF" letter-spacing="-1">Nexteo</text>
  </g>
  <text x="80" y="300" font-family="system-ui, sans-serif" font-size="78" font-weight="800" fill="#FFFFFF" letter-spacing="-2.4">Crée ton SaaS de A à Z,</text>
  <text x="80" y="386" font-family="system-ui, sans-serif" font-size="78" font-weight="800" fill="#FFFFFF" letter-spacing="-2.4">étape par étape.</text>
  <text x="80" y="460" font-family="system-ui, sans-serif" font-size="30" fill="#A0A0B8">Trouve ton idée, mets ton site en ligne, encaisse tes premiers paiements.</text>
  <g font-family="system-ui, sans-serif" font-size="24" fill="#A0A0B8">
    <rect x="80" y="510" width="196" height="52" rx="26" fill="none" stroke="#2A2A3E"/>
    <text x="108" y="543">Sans coder</text>
    <rect x="292" y="510" width="212" height="52" rx="26" fill="none" stroke="#2A2A3E"/>
    <text x="320" y="543">Sans équipe</text>
    <rect x="520" y="510" width="330" height="52" rx="26" fill="none" stroke="#2A2A3E"/>
    <text x="548" y="543">Sans budget de départ</text>
  </g>
</svg>
